<svg width="158" height="158" viewBox="0 0 158 158" fill="none" xmlns="http://www.w3.org/2000/svg">
<g filter="url(#filter0_d)">
<circle cx="79" cy="75" r="75" fill="#C4C4C4"/>
<path d="M25.9844 92.3203H42.1562V96H21.4609V61.875H25.9844V92.3203ZM71.9922 80.0391C71.9922 83.3828 71.4297 86.3047 70.3047 88.8047C69.1797 91.2891 67.5859 93.1875 65.5234 94.5C63.4609 95.8125 61.0547 96.4688 58.3047 96.4688C55.6172 96.4688 53.2344 95.8125 51.1562 94.5C49.0781 93.1719 47.4609 91.2891 46.3047 88.8516C45.1641 86.3984 44.5781 83.5625 44.5469 80.3438V77.8828C44.5469 74.6016 45.1172 71.7031 46.2578 69.1875C47.3984 66.6719 49.0078 64.75 51.0859 63.4219C53.1797 62.0781 55.5703 61.4062 58.2578 61.4062C60.9922 61.4062 63.3984 62.0703 65.4766 63.3984C67.5703 64.7109 69.1797 66.625 70.3047 69.1406C71.4297 71.6406 71.9922 74.5547 71.9922 77.8828V80.0391ZM67.5156 77.8359C67.5156 73.7891 66.7031 70.6875 65.0781 68.5312C63.4531 66.3594 61.1797 65.2734 58.2578 65.2734C55.4141 65.2734 53.1719 66.3594 51.5312 68.5312C49.9062 70.6875 49.0703 73.6875 49.0234 77.5312V80.0391C49.0234 83.9609 49.8438 87.0469 51.4844 89.2969C53.1406 91.5312 55.4141 92.6484 58.3047 92.6484C61.2109 92.6484 63.4609 91.5938 65.0547 89.4844C66.6484 87.3594 67.4688 84.3203 67.5156 80.3672V77.8359ZM103.938 91.5234C102.781 93.1797 101.164 94.4219 99.0859 95.25C97.0234 96.0625 94.6172 96.4688 91.8672 96.4688C89.0859 96.4688 86.6172 95.8203 84.4609 94.5234C82.3047 93.2109 80.6328 91.3516 79.4453 88.9453C78.2734 86.5391 77.6719 83.75 77.6406 80.5781V77.6016C77.6406 72.4609 78.8359 68.4766 81.2266 65.6484C83.6328 62.8203 87.0078 61.4062 91.3516 61.4062C94.9141 61.4062 97.7812 62.3203 99.9531 64.1484C102.125 65.9609 103.453 68.5391 103.938 71.8828H99.4375C98.5938 67.3672 95.9062 65.1094 91.375 65.1094C88.3594 65.1094 86.0703 66.1719 84.5078 68.2969C82.9609 70.4062 82.1797 73.4688 82.1641 77.4844V80.2734C82.1641 84.1016 83.0391 87.1484 84.7891 89.4141C86.5391 91.6641 88.9062 92.7891 91.8906 92.7891C93.5781 92.7891 95.0547 92.6016 96.3203 92.2266C97.5859 91.8516 98.6328 91.2188 99.4609 90.3281V82.6641H91.5625V79.0078H103.938V91.5234ZM137.711 80.0391C137.711 83.3828 137.148 86.3047 136.023 88.8047C134.898 91.2891 133.305 93.1875 131.242 94.5C129.18 95.8125 126.773 96.4688 124.023 96.4688C121.336 96.4688 118.953 95.8125 116.875 94.5C114.797 93.1719 113.18 91.2891 112.023 88.8516C110.883 86.3984 110.297 83.5625 110.266 80.3438V77.8828C110.266 74.6016 110.836 71.7031 111.977 69.1875C113.117 66.6719 114.727 64.75 116.805 63.4219C118.898 62.0781 121.289 61.4062 123.977 61.4062C126.711 61.4062 129.117 62.0703 131.195 63.3984C133.289 64.7109 134.898 66.625 136.023 69.1406C137.148 71.6406 137.711 74.5547 137.711 77.8828V80.0391ZM133.234 77.8359C133.234 73.7891 132.422 70.6875 130.797 68.5312C129.172 66.3594 126.898 65.2734 123.977 65.2734C121.133 65.2734 118.891 66.3594 117.25 68.5312C115.625 70.6875 114.789 73.6875 114.742 77.5312V80.0391C114.742 83.9609 115.562 87.0469 117.203 89.2969C118.859 91.5312 121.133 92.6484 124.023 92.6484C126.93 92.6484 129.18 91.5938 130.773 89.4844C132.367 87.3594 133.188 84.3203 133.234 80.3672V77.8359Z" fill="black"/>
</g>
<defs>
<filter id="filter0_d" x="0" y="0" width="158" height="158" filterUnits="userSpaceOnUse" color-interpolation-filters="sRGB">
<feFlood flood-opacity="0" result="BackgroundImageFix"/>
<feColorMatrix in="SourceAlpha" type="matrix" values="0 0 0 0 0 0 0 0 0 0 0 0 0 0 0 0 0 0 127 0" result="hardAlpha"/>
<feOffset dy="4"/>
<feGaussianBlur stdDeviation="2"/>
<feComposite in2="hardAlpha" operator="out"/>
<feColorMatrix type="matrix" values="0 0 0 0 0 0 0 0 0 0 0 0 0 0 0 0 0 0 0.25 0"/>
<feBlend mode="normal" in2="BackgroundImageFix" result="effect1_dropShadow"/>
<feBlend mode="normal" in="SourceGraphic" in2="effect1_dropShadow" result="shape"/>
</filter>
</defs>
</svg>
